<?xml version="1.0" encoding="utf-8"?>
<!-- Generator: Adobe Illustrator 24.3.0, SVG Export Plug-In . SVG Version: 6.00 Build 0)  -->
<svg version="1.1" id="Bold" xmlns="http://www.w3.org/2000/svg" xmlns:xlink="http://www.w3.org/1999/xlink" x="0px" y="0px"
	 viewBox="0 0 512 512" style="enable-background:new 0 0 512 512;" xml:space="preserve">
<style type="text/css">
	.st0{fill:#312C30;}
</style>
<g>
	<path class="st0" d="M356.9,166.7H155.1L256,253.2L356.9,166.7z"/>
	<path class="st0" d="M256,273.9c-2.1,0-4.2-0.8-5.8-2.2l-110.3-94.5v168.1h232.1V177.2l-110.3,94.5
		C260.2,273.1,258.1,273.9,256,273.9z"/>
	<path class="st0" d="M256,6C117.9,6,6,117.9,6,256s111.9,250,250,250s250-111.9,250-250C505.8,118,394,6.2,256,6z M389.9,354.2
		c0,4.9-4,8.9-8.9,8.9H131c-4.9,0-8.9-4-8.9-8.9V157.8c0-4.9,4-8.9,8.9-8.9h250c4.9,0,8.9,4,8.9,8.9V354.2z"/>
</g>
</svg>
