<?xml version="1.0" encoding="utf-8"?>
<!-- Generator: Adobe Illustrator 24.3.0, SVG Export Plug-In . SVG Version: 6.00 Build 0)  -->
<svg version="1.1" id="Bold" xmlns="http://www.w3.org/2000/svg" xmlns:xlink="http://www.w3.org/1999/xlink" x="0px" y="0px"
	 viewBox="0 0 512 512" style="enable-background:new 0 0 512 512;" xml:space="preserve">
<style type="text/css">
	.st0{fill:#312C30;}
	.st1{fill:#FFFFFF;}
</style>
<g>
	<g>
		<g>
			<path class="st0" d="M256,506C118.1,506,6,393.8,6,256C6,118.2,118.1,6,256,6c137.9,0,250,112.1,250,250
				C506,393.8,393.9,506,256,506z"/>
		</g>
		<g>
			<g>
				<path class="st1" d="M397.3,275v93.3c0,2.3-1.9,4.2-4.2,4.2H345c-2.3,0-4.2-1.9-4.2-4.2v-86.8c0-22.8-8.2-38.4-28.6-38.4
					c-15.6,0-24.9,10.5-29,20.7c-1.5,3.6-1.9,8.7-1.9,13.8v90.8c0,2.3-1.9,4.2-4.2,4.2h-48.2c-2.3,0-4.2-1.9-4.2-4.2
					c0.1-23.1,0.6-135.3,0.1-161.7c0-2.3,1.8-4.2,4.2-4.2h48.1c2.3,0,4.2,1.9,4.2,4.2v19.9c-0.1,0.2-0.3,0.4-0.4,0.6h0.4v-0.6
					c7.5-11.6,20.9-28.1,51-28.1C369.4,198.5,397.3,222.8,397.3,275L397.3,275z M141.1,372.6h48.2c2.3,0,4.2-1.9,4.2-4.2V206.7
					c0-2.3-1.9-4.2-4.2-4.2h-48.2c-2.3,0-4.2,1.9-4.2,4.2v161.7C137,370.7,138.8,372.6,141.1,372.6z"/>
			</g>
		</g>
	</g>
	<g>
		<circle class="st1" cx="163.5" cy="150.6" r="30.3"/>
	</g>
</g>
</svg>
