<?xml version="1.0" encoding="utf-8"?>
<!-- Generator: Adobe Illustrator 24.1.2, SVG Export Plug-In . SVG Version: 6.00 Build 0)  -->
<svg version="1.1"
	 id="Camada_1" xmlns:cc="http://creativecommons.org/ns#" xmlns:dc="http://purl.org/dc/elements/1.1/" xmlns:inkscape="http://www.inkscape.org/namespaces/inkscape" xmlns:rdf="http://www.w3.org/1999/02/22-rdf-syntax-ns#" xmlns:sodipodi="http://sodipodi.sourceforge.net/DTD/sodipodi-0.dtd" xmlns:svg="http://www.w3.org/2000/svg"
	 xmlns="http://www.w3.org/2000/svg" xmlns:xlink="http://www.w3.org/1999/xlink" x="0px" y="0px" viewBox="0 0 90.4 84.1"
	 style="enable-background:new 0 0 90.4 84.1;" xml:space="preserve">
<style type="text/css">
	.st0{fill:#7E2E84;}
</style>
<g transform="translate(0,-952.36218)">
	<path class="st0" d="M37.5,961.2c-0.4,11-1.7,17.4-8.1,26.9c-1.1-1.1-2.6-1.7-4.2-1.7h-18c-3.3,0-6,2.7-6,6v36c0,3.3,2.7,6,6,6h18
		c1.7,0,3.2-0.7,4.3-1.9c0.8,0.6,1.5,1.2,2.3,1.7c1.8,1.1,3.8,1.7,6.5,2c5.3,0.5,13.6,0.1,32.9,0.2c0.7,0,1.4-0.2,1.9-0.7
		c3.8-3.1,5.7-6.3,6.6-9.7c0.3-0.2,0.6-0.4,0.9-0.7c2.9-3.6,4.1-7.8,3.6-11.6c0.2-0.1,0.3-0.3,0.4-0.4c3.4-4.2,4.4-9.2,3.2-13.3
		c2-2.6,2.8-5.6,2.5-8.3c-0.4-3.4-2.6-6.5-5.9-7.9c-0.4-0.2-0.8-0.2-1.2-0.3H58.6c1.3-9.8,0.3-18.9-3.2-25c-2-3.5-5-5.5-8-5.9
		C42.1,951.8,38,955.6,37.5,961.2L37.5,961.2z M50.2,961.3c2.7,4.8,4,14.3,2.1,24.4c-0.3,1.7,1.2,3.6,2.9,3.6h27.1
		c1.1,0.6,1.8,1.6,2,2.9c0.1,1.2-0.4,2.7-1.6,4.1H72.2c-1.6,0-3,1.4-3,3s1.5,3,3,3h9.9c0.2,1.7-0.2,3.8-1.6,6h-8.4c-1.6,0-3,1.4-3,3
		s1.5,3,3,3h5.9c0.2,1.7-0.2,3.8-1.6,6h-4.4c-1.6,0-3,1.4-3,3s1.5,3,3,3h1c-0.6,1.3-1.6,2.5-3.3,4c-18.2-0.1-26.9,0.2-31-0.2
		c-2.1-0.2-3-0.5-4-1.2c-0.9-0.5-2.1-1.5-3.7-2.8v-30.4c9.4-12.5,11.8-21.3,12.3-34.3C44.4,956.3,48.9,958.4,50.2,961.3z M7.2,992.3
		h18c-0.1,11.9,0,24,0,36h-18V992.3z"/>
</g>
</svg>
