<?xml version="1.0" encoding="utf-8"?>
<!-- Generator: Adobe Illustrator 24.1.2, SVG Export Plug-In . SVG Version: 6.00 Build 0)  -->
<svg version="1.1"
	 id="Camada_1" xmlns:cc="http://creativecommons.org/ns#" xmlns:dc="http://purl.org/dc/elements/1.1/" xmlns:inkscape="http://www.inkscape.org/namespaces/inkscape" xmlns:rdf="http://www.w3.org/1999/02/22-rdf-syntax-ns#" xmlns:sodipodi="http://sodipodi.sourceforge.net/DTD/sodipodi-0.dtd" xmlns:svg="http://www.w3.org/2000/svg"
	 xmlns="http://www.w3.org/2000/svg" xmlns:xlink="http://www.w3.org/1999/xlink" x="0px" y="0px" viewBox="0 0 90.4 84.1"
	 style="enable-background:new 0 0 90.4 84.1;" xml:space="preserve">
<style type="text/css">
	.st0{fill:#7E2E84;}
</style>
<g transform="translate(0,-952.36218)">
	<path class="st0" d="M54.1,1027.6c0.4-11,1.7-17.4,8.1-26.9c1.1,1.1,2.6,1.7,4.2,1.7h18c3.3,0,6-2.7,6-6v-36c0-3.3-2.7-6-6-6h-18
		c-1.7,0-3.2,0.7-4.3,1.9c-0.8-0.6-1.5-1.2-2.3-1.7c-1.8-1.1-3.8-1.7-6.5-2c-5.3-0.5-13.6-0.1-32.9-0.2c-0.7,0-1.4,0.2-1.9,0.7
		c-3.8,3.1-5.7,6.3-6.6,9.7c-0.3,0.2-0.6,0.4-0.9,0.7c-2.9,3.6-4.1,7.8-3.6,11.6c-0.2,0.1-0.3,0.3-0.4,0.4
		c-3.4,4.2-4.4,9.2-3.2,13.3c-2,2.6-2.8,5.6-2.5,8.3c0.4,3.4,2.6,6.5,5.9,7.9c0.4,0.2,0.8,0.2,1.2,0.3H33c-1.3,9.8-0.3,18.9,3.2,25
		c2,3.5,5,5.5,8,5.9C49.5,1037,53.6,1033.2,54.1,1027.6L54.1,1027.6z M41.4,1027.4c-2.7-4.8-4-14.3-2.1-24.4
		c0.3-1.7-1.2-3.6-2.9-3.6H9.2c-1.1-0.6-1.8-1.6-2-2.9c-0.1-1.2,0.4-2.7,1.6-4.1h10.5c1.6,0,3-1.4,3-3s-1.5-3-3-3H9.4
		c-0.2-1.7,0.2-3.8,1.6-6h8.4c1.6,0,3-1.4,3-3s-1.5-3-3-3h-5.9c-0.2-1.7,0.2-3.8,1.6-6h4.4c1.6,0,3-1.4,3-3s-1.5-3-3-3h-1
		c0.6-1.3,1.6-2.5,3.3-4c18.2,0.1,26.9-0.2,31,0.2c2.1,0.2,3,0.5,4,1.2c0.9,0.5,2.1,1.5,3.7,2.8V993c-9.4,12.5-11.8,21.3-12.3,34.3
		C47.2,1032.5,42.7,1030.3,41.4,1027.4z M84.4,996.4h-18c0.1-11.9,0-24,0-36h18V996.4z"/>
</g>
</svg>
