<?xml version="1.0" encoding="utf-8"?>
<!-- Generator: Adobe Illustrator 24.3.0, SVG Export Plug-In . SVG Version: 6.00 Build 0)  -->
<svg version="1.1" id="Bold" xmlns="http://www.w3.org/2000/svg" xmlns:xlink="http://www.w3.org/1999/xlink" x="0px" y="0px"
	 viewBox="0 0 512 512" style="enable-background:new 0 0 512 512;" xml:space="preserve">
<style type="text/css">
	.st0{fill:#312C30;}
	.st1{fill:#FFFFFF;}
</style>
<g>
	<g>
		<g>
			<path class="st0" d="M256,506C118.1,506,6,393.9,6,256C6,118.1,118.1,6,256,6c137.9,0,250,112.1,250,250
				C506,393.9,393.9,506,256,506z"/>
		</g>
	</g>
	<g>
		<g>
			<path class="st1" d="M350.9,214.9c-68.3,0-68.4,68.1-68.4,68.4c0,0-4.7,68.2,68.4,68.2c0,0,55,3.1,60.5-40.2
				c0.5-3.8-2.5-7.2-6.3-7.2h-19.1c-2.8,0-5.3,1.8-6.1,4.4c-1.7,5.7-7.5,14.7-28,14.7c0,0-26.5,1.8-30.7-23.7
				c-0.6-3.8,2.4-7.3,6.3-7.3H407c3.4,0,6.3-2.7,6.4-6.1C413.9,267.8,410.6,214.9,350.9,214.9z M325,268.4c-2.5,0-4.3-2.5-3.5-4.9
				c2.5-7.9,10-22.5,30.1-22.5c20.7,0,25.6,15.5,26.8,23.2c0.3,2.2-1.4,4.2-3.7,4.2H325z M243,252.5c-2.2-0.7-2.6-3.8-0.5-4.9
				c7.6-3.9,16.6-12.3,16.6-30.7c0-31.8-22.2-47.4-50.4-47.4h-88c-2.6,0-4.7,2.1-4.7,4.7V343c0,2.6,2.1,4.7,4.7,4.7h88
				c0,0,56.6,1.7,56.6-52.6C265.4,295.1,267.3,260.5,243,252.5z M156.9,204.5c0-1.9,1.5-3.4,3.4-3.4h48.5c0,0,12.6,0,12.6,18.6
				c0,18.6-7.4,21.2-15.8,21.2h-45.3c-1.9,0-3.4-1.5-3.4-3.4V204.5z M206.1,316h-45.9c-1.9,0-3.4-1.5-3.4-3.4v-40.9
				c0-1.9,1.5-3.4,3.4-3.4h48.5c0,0,18.8-0.2,18.7,24.5C227.5,313.7,213.5,315.9,206.1,316z M312.6,176.6v15.2
				c0,1.8,1.5,3.3,3.3,3.3h66.8c1.8,0,3.4-1.5,3.4-3.3v-15.2c0-1.8-1.5-3.3-3.4-3.3h-66.8C314.1,173.3,312.6,174.8,312.6,176.6z"/>
		</g>
	</g>
</g>
</svg>
