<?xml version="1.0" encoding="utf-8"?>
<!-- Generator: Adobe Illustrator 24.3.0, SVG Export Plug-In . SVG Version: 6.00 Build 0)  -->
<svg version="1.1" id="Bold" xmlns="http://www.w3.org/2000/svg" xmlns:xlink="http://www.w3.org/1999/xlink" x="0px" y="0px"
	 viewBox="0 0 512 512" style="enable-background:new 0 0 512 512;" xml:space="preserve">
<style type="text/css">
	.st0{fill:#FFFFFF;}
	.st1{fill:#312C30;}
</style>
<g>
	<circle class="st0" cx="255.8" cy="253.9" r="219"/>
	<g>
		<path class="st1" d="M256,506C118.2,506,6,393.8,6,256C6,118.2,118.2,6,256,6s250,112.2,250,250C506,393.8,393.8,506,256,506z
			 M340.3,154.6c-10.2,0-18.5,8.3-18.5,18.5s8.3,18.5,18.5,18.5s18.5-8.3,18.5-18.5S350.5,154.6,340.3,154.6z M258.1,178.3
			c-42.8,0-77.7,34.9-77.7,77.7s34.9,77.7,77.7,77.7c42.8,0,77.7-34.9,77.7-77.7S300.9,178.3,258.1,178.3z M258.1,305.8
			c-27.4,0-49.8-22.3-49.8-49.8s22.3-49.8,49.8-49.8c27.4,0,49.8,22.3,49.8,49.8S285.5,305.8,258.1,305.8z M414.9,191.4
			c0-52.3-42.4-94.8-94.8-94.8H195c-52.3,0-94.8,42.4-94.8,94.8v125.1c0,52.3,42.4,94.8,94.8,94.8h125.1c52.3,0,94.8-42.4,94.8-94.8
			V191.4z M385.2,316.5c0,36-29.1,65.1-65.1,65.1H195c-36,0-65.1-29.1-65.1-65.1V191.4c0-36,29.1-65.1,65.1-65.1h125.1
			c36,0,65.1,29.1,65.1,65.1V316.5z"/>
	</g>
</g>
</svg>
